<svg width="34" height="34" viewBox="0 0 34 34" fill="none" xmlns="http://www.w3.org/2000/svg">
<path d="M10.3019 0.552612C4.95639 0.552612 0.608154 4.85902 0.608154 10.1496V23.8557C0.608154 29.1449 4.96041 33.4474 10.3073 33.4474H24.1594C29.5049 33.4474 33.8531 29.1409 33.8531 23.8504V10.1442C33.8531 4.85503 29.5009 0.552612 24.154 0.552612H10.3019ZM26.9271 6.03507C27.6917 6.03507 28.3123 6.6491 28.3123 7.40568C28.3123 8.16226 27.6917 8.7763 26.9271 8.7763C26.1625 8.7763 25.5419 8.16226 25.5419 7.40568C25.5419 6.6491 26.1625 6.03507 26.9271 6.03507ZM17.2306 8.7763C21.8143 8.7763 25.5419 12.4646 25.5419 17C25.5419 21.5353 21.8143 25.2237 17.2306 25.2237C12.647 25.2237 8.9194 21.5353 8.9194 17C8.9194 12.4646 12.647 8.7763 17.2306 8.7763ZM17.2306 11.5175C15.7611 11.5175 14.3518 12.0951 13.3127 13.1233C12.2736 14.1515 11.6898 15.5459 11.6898 17C11.6898 18.454 12.2736 19.8485 13.3127 20.8767C14.3518 21.9048 15.7611 22.4824 17.2306 22.4824C18.7002 22.4824 20.1095 21.9048 21.1486 20.8767C22.1877 19.8485 22.7715 18.454 22.7715 17C22.7715 15.5459 22.1877 14.1515 21.1486 13.1233C20.1095 12.0951 18.7002 11.5175 17.2306 11.5175Z" fill="black"/>
</svg>
