<svg width="33" height="25" viewBox="0 0 33 25" fill="none" xmlns="http://www.w3.org/2000/svg">
<path d="M17.573 24.989C18.3861 24.989 18.7185 24.264 18.7092 23.3551C18.6678 19.9319 19.6625 18.0891 21.4582 20.4908C23.4449 23.1479 23.8561 24.989 26.2687 24.989H30.5411C31.6199 24.989 32.0444 24.5247 32.0444 23.7961C32.0444 22.2551 30.1472 19.5355 28.5397 17.5391C26.2887 14.7444 26.1832 14.6784 28.1218 11.3141C30.5264 7.13741 33.672 1.78569 30.8896 1.78569H25.5744C24.5437 1.78569 24.4689 2.56247 24.1018 3.71959C22.7733 7.91061 20.2486 13.3391 19.29 12.5088C18.2873 11.6427 18.7466 8.21239 18.8227 3.11424C18.8427 1.76783 18.8373 0.844632 17.2993 0.366066C16.4595 0.107141 15.6424 0 14.884 0C11.8493 0 9.75579 1.70176 10.9454 1.99819C13.0429 2.5214 12.8413 8.59096 12.3526 11.2124C11.5008 15.7766 8.29917 7.59811 6.96537 3.52495C6.64361 2.5464 6.54481 1.78569 5.39659 1.78569H1.05075C0.393863 1.78569 0 2.0714 0 2.70711C0 3.78209 3.95198 14.7069 7.72506 20.1533C11.4047 25.4657 15.0416 24.989 17.573 24.989Z" fill="black"/>
</svg>
